<?xml version="1.0"?>
<svg xmlns="http://www.w3.org/2000/svg" id="Capa_1" enable-background="new 0 0 512 512" height="512px" viewBox="0 0 512 512" width="512px" class=""><g><g><g><path d="m329.596 215.694c-12.823-.89-24.481 4.208-32.461 12.778-1.931 2.074-4.612 3.284-7.446 3.284h-23.588c-5.579 0-10.102-4.523-10.102-10.102v-69.701c0-11.158-9.045-20.203-20.203-20.203h-208.093c-11.158 0-20.203 9.045-20.203 20.203v208.093c0 11.158 9.045 20.203 20.203 20.203h69.701c5.579 0 10.102-4.523 10.102-10.102v-23.587c0-2.834-1.211-5.515-3.284-7.446-8.569-7.979-13.668-19.636-12.778-32.459 1.382-19.917 17.52-36.049 37.437-37.424 23.613-1.63 43.275 17.043 43.275 40.307 0 11.669-4.948 22.182-12.859 29.558-2.08 1.939-3.304 4.623-3.304 7.466v23.586c0 5.579 4.523 10.102 10.102 10.102h69.701c11.158 0 20.203-9.045 20.203-20.203v-69.701c0-5.579 4.523-10.102 10.102-10.102h23.586c2.843 0 5.527 1.224 7.466 3.304 7.376 7.911 17.889 12.859 29.558 12.859 23.264 0 41.936-19.661 40.307-43.273-1.373-19.919-17.505-36.057-37.422-37.44z" fill="#ffe07d" data-original="#FFE07D" class="active-path" style="fill:#974C18" data-old_color="#ffe07d"/></g><g><path d="m414.596 380.25h69.701c11.158 0 20.203-9.045 20.203-20.203v-208.094c0-11.158-9.045-20.203-20.203-20.203h-69.701c-5.579 0-10.102-4.523-10.102-10.102v-23.588c0-2.834 1.211-5.515 3.284-7.446 8.569-7.979 13.668-19.636 12.778-32.459-1.382-19.917-17.52-36.049-37.438-37.424-23.613-1.63-43.275 17.043-43.275 40.307 0 11.669 4.948 22.182 12.859 29.558 2.08 1.939 3.304 4.623 3.304 7.466v23.586c0 5.579-4.523 10.102-10.102 10.102h-69.701c-11.158 0-20.203 9.045-20.203 20.203v69.701c0 5.579 4.523 10.102 10.102 10.102h23.588c2.834 0 5.515-1.211 7.446-3.284 7.979-8.569 19.636-13.668 32.459-12.778 19.917 1.382 36.049 17.519 37.425 37.437 1.631 23.614-17.042 43.276-40.307 43.276-11.669 0-22.182-4.948-29.558-12.859-1.939-2.08-4.623-3.304-7.466-3.304h-23.586c-5.579 0-10.102 4.523-10.102 10.102v69.701c0 11.158 9.045 20.203 20.203 20.203h69.701c5.579 0 10.102 4.523 10.102 10.102v23.586c0 2.843-1.224 5.527-3.304 7.466-7.911 7.376-12.859 17.888-12.859 29.558 0 23.265 19.662 41.938 43.275 40.307 19.918-1.375 36.056-17.507 37.438-37.424.89-12.823-4.209-24.48-12.778-32.459-2.074-1.931-3.284-4.612-3.284-7.446v-23.588c-.001-5.579 4.522-10.102 10.101-10.102z" fill="#ac80dd" data-original="#AC80DD" class="" style="fill:#78A8BC" data-old_color="#ac80dd"/></g><g><path d="m343.379 339.843c-31.922 0-61.798-8.746-87.379-23.957v44.16c0 11.158 9.045 20.203 20.203 20.203h69.701c5.579 0 10.102 4.523 10.102 10.102v23.586c0 2.843-1.224 5.527-3.304 7.466-7.911 7.376-12.859 17.888-12.859 29.558 0 23.265 19.662 41.938 43.275 40.307 19.918-1.375 36.056-17.507 37.438-37.424.89-12.823-4.209-24.48-12.778-32.459-2.074-1.931-3.284-4.612-3.284-7.446v-23.588c0-5.579 4.523-10.102 10.102-10.102h69.701c11.158 0 20.203-9.045 20.203-20.203v-133.371c-23.781 65.988-86.938 113.168-161.121 113.168z" fill="#9d66d5" data-original="#9D66D5" class="" style="fill:#BFDBDE" data-old_color="#9d66d5"/></g><g><path d="m367.019 253.133c-1.374-19.918-17.506-36.056-37.423-37.439-12.824-.89-24.481 4.208-32.461 12.778-1.931 2.074-4.612 3.284-7.446 3.284h-23.588c-1.538 0-2.99-.354-4.295-.969-11.564 36.109-45.52 65.279-89.671 77.962.005.264.021.525.021.789 0 11.669-4.948 22.182-12.859 29.558-2.08 1.939-3.304 4.623-3.304 7.466v23.586c0 5.579 4.523 10.102 10.102 10.102h69.701c11.158 0 20.203-9.045 20.203-20.203v-69.701c0-5.579 4.523-10.102 10.102-10.102h23.586c2.843 0 5.527 1.224 7.466 3.304 7.376 7.911 17.888 12.859 29.558 12.859 23.265-.001 41.937-19.662 40.308-43.274z" fill="#ffd064" data-original="#FFD064" class="" style="fill:#DDB067" data-old_color="#ffd064"/></g><g><path d="m7.5 314.75c4.143 0 7.5-3.358 7.5-7.5v-155.3c0-7.003 5.697-12.7 12.7-12.7h76.51c4.143 0 7.5-3.358 7.5-7.5s-3.357-7.5-7.5-7.5h-76.51c-15.274 0-27.7 12.426-27.7 27.7v155.3c0 4.142 3.357 7.5 7.5 7.5z" data-original="#000000" class="" style="fill:#999999" data-old_color="#000000"/><path d="m504.5 233.5c4.143 0 7.5-3.358 7.5-7.5v-74.05c0-15.274-12.426-27.7-27.7-27.7h-69.7c-1.438 0-2.609-1.167-2.609-2.6v-23.59c0-.723.321-1.421.897-1.958 10.642-9.896 16.164-23.915 15.153-38.463-1.65-23.667-20.74-42.751-44.404-44.39-13.438-.928-26.257 3.604-36.071 12.764-9.676 9.029-15.226 21.797-15.226 35.027 0 13.232 5.557 26.006 15.245 35.045.588.548.925 1.268.925 1.975v23.59c0 1.434-1.171 2.6-2.609 2.6h-69.7c-7.961 0-15.143 3.38-20.2 8.775-5.057-5.395-12.239-8.775-20.2-8.775h-96.59c-4.143 0-7.5 3.358-7.5 7.5s3.357 7.5 7.5 7.5h96.59c7.003 0 12.7 5.697 12.7 12.7v69.7c0 9.71 7.896 17.61 17.6 17.61h23.591c4.856 0 9.571-2.068 12.941-5.682 6.796-7.307 16.436-11.1 26.445-10.406 16.239 1.134 29.335 14.236 30.46 30.475.64 9.257-2.473 18.066-8.762 24.805-6.295 6.745-14.842 10.459-24.065 10.459s-17.772-3.721-24.076-10.477c-3.376-3.618-8.094-5.693-12.943-5.693h-23.592c-9.704 0-17.6 7.9-17.6 17.61v69.7c0 7.003-5.697 12.7-12.7 12.7h-69.7c-1.438 0-2.609-1.167-2.609-2.6v-23.59c0-.707.337-1.427.926-1.976 9.688-9.038 15.244-21.812 15.244-35.044 0-13.23-5.55-25.997-15.226-35.028-9.812-9.16-22.622-13.691-36.073-12.764-23.662 1.639-42.752 20.723-44.403 44.392-1.01 14.547 4.513 28.565 15.146 38.455.584.544.905 1.243.905 1.965v23.59c0 1.434-1.171 2.6-2.609 2.6h-69.701c-7.003 0-12.7-5.697-12.7-12.7v-17.8c0-4.142-3.357-7.5-7.5-7.5s-7.5 3.358-7.5 7.5v17.8c0 15.274 12.426 27.7 27.7 27.7h69.7c9.71 0 17.609-7.896 17.609-17.6v-23.59c0-4.857-2.068-9.572-5.683-12.942-7.308-6.796-11.1-16.432-10.405-26.436 1.134-16.246 14.235-29.345 30.475-30.47 9.259-.646 18.062 2.474 24.803 8.765 6.746 6.296 10.461 14.841 10.461 24.062 0 9.223-3.721 17.773-10.476 24.075-3.619 3.375-5.694 8.093-5.694 12.945v23.59c0 9.705 7.899 17.6 17.609 17.6h69.7c7.961 0 15.143-3.38 20.2-8.775 5.057 5.395 12.239 8.775 20.2 8.775h69.7c1.438 0 2.609 1.167 2.609 2.6v23.59c0 .707-.337 1.427-.926 1.976-9.688 9.038-15.244 21.812-15.244 35.044 0 13.23 5.55 25.998 15.226 35.028 8.975 8.376 20.453 12.883 32.637 12.883 1.139 0 2.286-.04 3.437-.119 23.662-1.639 42.752-20.723 44.403-44.392 1.01-14.547-4.513-28.565-15.146-38.455-.584-.544-.905-1.242-.905-1.965v-23.59c0-1.434 1.171-2.6 2.609-2.6h69.7c15.274 0 27.7-12.426 27.7-27.7v-99.05c0-4.142-3.357-7.5-7.5-7.5s-7.5 3.358-7.5 7.5v99.05c0 7.003-5.697 12.7-12.7 12.7h-69.7c-9.71 0-17.609 7.896-17.609 17.6v23.59c0 4.857 2.068 9.572 5.683 12.942 7.308 6.796 11.1 16.432 10.405 26.436-1.134 16.246-14.235 29.345-30.475 30.47-9.259.638-18.062-2.474-24.803-8.766-6.746-6.296-10.461-14.841-10.461-24.062 0-9.223 3.721-17.773 10.476-24.075 3.619-3.375 5.694-8.093 5.694-12.945v-23.59c0-9.705-7.899-17.6-17.609-17.6h-69.7c-7.003 0-12.7-5.697-12.7-12.7v-69.7c0-1.439 1.166-2.61 2.6-2.61h23.591c.707 0 1.427.337 1.976.926 9.039 9.688 21.812 15.244 35.044 15.244s26.001-5.549 35.031-15.224c9.157-9.812 13.689-22.623 12.761-36.075-1.641-23.662-20.72-42.751-44.383-44.403-14.559-1.012-28.575 4.514-38.465 15.147-.544.583-1.241.905-1.964.905h-23.591c-1.434 0-2.6-1.171-2.6-2.61v-69.7c0-7.003 5.697-12.7 12.7-12.7h69.7c9.71 0 17.609-7.896 17.609-17.6v-23.59c0-4.852-2.075-9.57-5.693-12.944-6.756-6.303-10.477-14.854-10.477-24.076 0-9.221 3.715-17.767 10.461-24.062 6.74-6.291 15.547-9.405 24.801-8.766 16.241 1.125 29.343 14.225 30.476 30.468.695 10.005-3.097 19.642-10.412 26.445-3.606 3.363-5.675 8.078-5.675 12.935v23.59c0 9.705 7.899 17.6 17.609 17.6h69.7c7.003 0 12.7 5.697 12.7 12.7v74.05c.001 4.142 3.358 7.5 7.501 7.5z" data-original="#000000" class="" style="fill:#999999" data-old_color="#000000"/></g></g></g> </svg>
