<?xml version="1.0"?>
<svg xmlns="http://www.w3.org/2000/svg" id="icons" enable-background="new 0 0 64 64" height="512px" viewBox="0 0 64 64" width="512px" class=""><g><g><g><path d="m10.003 11.509c2.2 0 4 1.79 4 4-.01 2.21-1.8 4-4.01 4-2.2 0-4-1.8-3.99-4 0-2.21 1.79-4 4-4z" fill="#ffce54" data-original="#FFCE54"/></g><g><path d="m34.013 42.509v13.99 1h-2.98v-1-13.99-6.01h2.98z" fill="#965353" data-original="#965353"/></g><g><path d="m59.013 32.499c1.11 0 2 .9 2 2 0 1.11-.89 2-2 2h-14-5-6-2.979-6.03-5-13c-1.1 0-2-.89-2-2 0-1.1.9-2 2-2h5.99c-1.101 0-2-.89-2-2 0-1.1.899-2 2-2h13.029c-1.109 0-2-.9-2-2 0-1.11.891-2 2-2h19c1.101 0 2 .89 2 2 0 1.1-.899 2-2 2h9.99c1.11 0 2 .9 2 2 0 1.11-.89 2-2 2z" fill="#a0d468" data-original="#A0D468" class="active-path" style="fill:#DDB067" data-old_color="#a0d468"/></g><g><path d="m57.003 56.499v1h-3.99v-1c0-1.11.891-2 1.99-2 1.11 0 2 .89 2 2z" fill="#a0d468" data-original="#A0D468" class="active-path" style="fill:#DDB067" data-old_color="#a0d468"/></g><g><path d="m48.003 54.499v3h-7.99v-2c0-1.11.891-2 2-2 1.101 0 1.99.89 1.99 2v-1c0-1.11.9-2 2-2 1.11 0 2 .89 2 2z" fill="#a0d468" data-original="#A0D468" class="active-path" style="fill:#DDB067" data-old_color="#a0d468"/></g><g><path d="m25.022 55.499v2h-8v-3c0-1.11.9-2 2-2 1.101 0 2 .89 2 2v1c0-1.11.891-2 2-2 1.101 0 2 .89 2 2z" fill="#a0d468" data-original="#A0D468" class="active-path" style="fill:#DDB067" data-old_color="#a0d468"/></g><g><path d="m12.003 56.499v1h-4v-1c0-1.11.9-2 2-2 1.11 0 2 .89 2 2z" fill="#a0d468" data-original="#A0D468" class="active-path" style="fill:#DDB067" data-old_color="#a0d468"/></g></g><g><g><g><path d="m7.002 37.504c-1.654 0-3-1.346-3-3s1.346-3 3-3c.553 0 1 .447 1 1s-.447 1-1 1c-.552 0-1 .448-1 1s.448 1 1 1c.553 0 1 .447 1 1s-.447 1-1 1z" data-original="#000000" class=""/></g><g><path d="m12.992 33.504c-1.654 0-3-1.346-3-3s1.346-3 3-3c.553 0 1 .447 1 1s-.447 1-1 1c-.552 0-1 .448-1 1s.448 1 1 1c.553 0 1 .447 1 1s-.447 1-1 1z" data-original="#000000" class=""/></g><g><path d="m26.017 29.496c-1.654 0-3-1.346-3-3s1.346-3 3-3c.553 0 1 .447 1 1s-.447 1-1 1c-.552 0-1 .448-1 1s.448 1 1 1c.553 0 1 .447 1 1s-.448 1-1 1z" data-original="#000000" class=""/></g><g><path d="m59.015 37.504c-.553 0-1-.447-1-1s.447-1 1-1c.552 0 1-.448 1-1s-.448-1-1-1c-.553 0-1-.447-1-1s.447-1 1-1c1.654 0 3 1.346 3 3s-1.346 3-3 3z" data-original="#000000" class=""/></g><g><path d="m55.013 33.504c-.553 0-1-.447-1-1s.447-1 1-1c.552 0 1-.448 1-1s-.448-1-1-1c-.553 0-1-.447-1-1s.447-1 1-1c1.654 0 3 1.346 3 3s-1.346 3-3 3z" data-original="#000000" class=""/></g><g><path d="m45.017 29.496c-.553 0-1-.447-1-1s.447-1 1-1c.552 0 1-.448 1-1s-.448-1-1-1c-.553 0-1-.447-1-1s.447-1 1-1c1.654 0 3 1.346 3 3s-1.346 3-3 3z" data-original="#000000" class=""/></g><g><path d="m59.015 37.504h-52.013c-.553 0-1-.447-1-1s.447-1 1-1h52.013c.553 0 1 .447 1 1s-.448 1-1 1z" data-original="#000000" class=""/></g><g><path d="m59.015 33.504h-4.002c-.553 0-1-.447-1-1s.447-1 1-1h4.002c.553 0 1 .447 1 1s-.448 1-1 1z" data-original="#000000" class=""/></g><g><path d="m12.992 33.504h-5.99c-.553 0-1-.447-1-1s.447-1 1-1h5.99c.553 0 1 .447 1 1s-.447 1-1 1z" data-original="#000000" class=""/></g><g><path d="m55.013 29.504h-9.996c-.553 0-1-.447-1-1s.447-1 1-1h9.996c.553 0 1 .447 1 1s-.448 1-1 1z" data-original="#000000" class=""/></g><g><path d="m45.017 25.496h-19c-.553 0-1-.447-1-1s.447-1 1-1h19c.553 0 1 .447 1 1s-.448 1-1 1z" data-original="#000000" class=""/></g><g><path d="m26.017 29.496h-13.025c-.553 0-1-.447-1-1s.447-1 1-1h13.024c.553 0 1 .447 1 1s-.447 1-.999 1z" data-original="#000000" class=""/></g></g><g><g><path d="m33.997 43.51c-.553 0-1-.447-1-1s.447-1 1-1c2.763 0 5.01-2.247 5.01-5.01 0-.553.447-1 1-1s1 .447 1 1c0 3.865-3.145 7.01-7.01 7.01z" data-original="#000000" class=""/></g><g><path d="m38.998 43.51c-.553 0-1-.447-1-1s.447-1 1-1c2.763 0 5.01-2.247 5.01-5.01 0-.553.447-1 1-1s1 .447 1 1c0 3.865-3.145 7.01-7.01 7.01z" data-original="#000000" class=""/></g><g><path d="m34.007 58.501c-.553 0-1-.447-1-1v-19.997h-.979v19.997c0 .553-.447 1-1 1s-1-.447-1-1v-20.997c0-.553.447-1 1-1h2.979c.553 0 1 .447 1 1v20.997c0 .553-.447 1-1 1z" data-original="#000000" class=""/></g><g><path d="m39.002 43.508h-5.005c-.553 0-1-.447-1-1s.447-1 1-1h5.005c.553 0 1 .447 1 1s-.447 1-1 1z" data-original="#000000" class=""/></g><g><path d="m31.015 43.51c-3.865 0-7.01-3.145-7.01-7.01 0-.553.447-1 1-1s1 .447 1 1c0 2.763 2.247 5.01 5.01 5.01.553 0 1 .447 1 1s-.448 1-1 1z" data-original="#000000" class=""/></g><g><path d="m26.014 43.51c-3.865 0-7.01-3.145-7.01-7.01 0-.553.447-1 1-1s1 .447 1 1c0 2.763 2.247 5.01 5.01 5.01.553 0 1 .447 1 1s-.448 1-1 1z" data-original="#000000" class=""/></g><g><path d="m31.015 43.508h-5.005c-.553 0-1-.447-1-1s.447-1 1-1h5.005c.553 0 1 .447 1 1s-.448 1-1 1z" data-original="#000000" class=""/></g></g><g><path d="m63.004 58.498h-62c-.553 0-1-.447-1-1s.447-1 1-1h62c.553 0 1 .447 1 1s-.447 1-1 1z" data-original="#000000" class=""/></g><g><path d="m44.004 56.498c-.553 0-1-.447-1-1 0-.551-.447-.998-.998-.998s-.999.447-.999.998c0 .553-.447 1-1 1s-1-.447-1-1c0-1.653 1.346-2.998 2.999-2.998s2.998 1.345 2.998 2.998c0 .553-.447 1-1 1z" data-original="#000000" class=""/></g><g><path d="m57.003 57.496c-.553 0-1-.447-1-1 0-.551-.447-.998-.998-.998s-.999.447-.999.998c0 .553-.447 1-1 1s-1-.447-1-1c0-1.653 1.346-2.998 2.999-2.998s2.998 1.345 2.998 2.998c0 .553-.447 1-1 1z" data-original="#000000" class=""/></g><g><path d="m48.002 55.496c-.553 0-1-.447-1-1 0-.551-.447-.998-.998-.998s-.999.447-.999.998c0 .553-.447 1-1 1s-1-.447-1-1c0-1.653 1.346-2.998 2.999-2.998s2.998 1.345 2.998 2.998c0 .553-.447 1-1 1z" data-original="#000000" class=""/></g><g><path d="m40.007 58.498c-.553 0-1-.447-1-1v-2c0-.553.447-1 1-1s1 .447 1 1v2c0 .553-.447 1-1 1z" data-original="#000000" class=""/></g><g><path d="m48.002 58.498c-.553 0-1-.447-1-1v-3.002c0-.553.447-1 1-1s1 .447 1 1v3.002c0 .553-.447 1-1 1z" data-original="#000000" class=""/></g><g><path d="m44.005 56.498c-.553 0-1-.447-1-1v-1.002c0-.553.447-1 1-1s1 .447 1 1v1.002c0 .553-.447 1-1 1z" data-original="#000000" class=""/></g><g><path d="m25.017 56.498c-.553 0-1-.447-1-1 0-.551-.448-.998-.999-.998s-.998.447-.998.998c0 .553-.447 1-1 1s-1-.447-1-1c0-1.653 1.345-2.998 2.998-2.998s2.999 1.345 2.999 2.998c0 .553-.448 1-1 1z" data-original="#000000" class=""/></g><g><path d="m21.019 55.496c-.553 0-1-.447-1-1 0-.551-.448-.998-.999-.998s-.998.447-.998.998c0 .553-.447 1-1 1s-1-.447-1-1c0-1.653 1.345-2.998 2.998-2.998s2.999 1.345 2.999 2.998c0 .553-.448 1-1 1z" data-original="#000000" class=""/></g><g><path d="m25.017 58.498c-.553 0-1-.447-1-1v-2c0-.553.447-1 1-1s1 .447 1 1v2c0 .553-.448 1-1 1z" data-original="#000000" class=""/></g><g><path d="m17.021 58.498c-.553 0-1-.447-1-1v-3.002c0-.553.447-1 1-1s1 .447 1 1v3.002c0 .553-.447 1-1 1z" data-original="#000000" class=""/></g><g><path d="m21.019 56.498c-.553 0-1-.447-1-1v-1.002c0-.553.447-1 1-1s1 .447 1 1v1.002c0 .553-.448 1-1 1z" data-original="#000000" class=""/></g><g><path d="m53.006 58.498c-.553 0-1-.447-1-1v-1.002c0-.553.447-1 1-1s1 .447 1 1v1.002c0 .553-.447 1-1 1z" data-original="#000000" class=""/></g><g><path d="m57.003 58.498c-.553 0-1-.447-1-1v-1.002c0-.553.447-1 1-1s1 .447 1 1v1.002c0 .553-.447 1-1 1z" data-original="#000000" class=""/></g><g><path d="m12.001 57.496c-.553 0-1-.447-1-1 0-.551-.447-.998-.998-.998s-.999.447-.999.998c0 .553-.447 1-1 1s-1-.447-1-1c0-1.653 1.346-2.998 2.999-2.998s2.998 1.345 2.998 2.998c0 .553-.447 1-1 1z" data-original="#000000" class=""/></g><g><path d="m8.004 58.498c-.553 0-1-.447-1-1v-1.002c0-.553.447-1 1-1s1 .447 1 1v1.002c0 .553-.447 1-1 1z" data-original="#000000" class=""/></g><g><path d="m12.001 58.498c-.553 0-1-.447-1-1v-1.002c0-.553.447-1 1-1s1 .447 1 1v1.002c0 .553-.447 1-1 1z" data-original="#000000" class=""/></g><g><g><path d="m9.994 20.508c-1.335 0-2.591-.521-3.535-1.466s-1.465-2.201-1.464-3.536c.001-2.756 2.245-4.998 5.001-4.998 1.335 0 2.591.521 3.535 1.466s1.465 2.201 1.464 3.536c-.001 2.756-2.245 4.998-5.001 4.998zm.002-8c-1.654 0-3 1.345-3.001 2.998 0 .802.312 1.556.879 2.122.566.567 1.319.88 2.12.88 1.654 0 3-1.345 3.001-2.998 0-.802-.312-1.556-.879-2.122-.566-.568-1.319-.88-2.12-.88z" data-original="#000000" class=""/></g><g><path d="m9.991 25.504c-.553 0-1-.448-1-1.001l.001-2c0-.552.448-.999 1-.999h.001c.552 0 .999.448.999 1.001l-.001 2c0 .552-.448.999-1 .999z" data-original="#000000" class=""/></g><g><path d="m9.996 9.504c-.553 0-1-.448-1-1l.001-2.002c0-.553.448-1 1-1 .553 0 1 .448 1 1l-.001 2.002c0 .553-.448 1-1 1z" data-original="#000000" class=""/></g><g><path d="m16.357 22.871c-.256 0-.513-.098-.708-.293l-1.414-1.416c-.39-.392-.39-1.024.001-1.415.391-.389 1.024-.39 1.415.001l1.414 1.416c.39.392.39 1.024-.001 1.415-.195.194-.451.292-.707.292z" data-original="#000000" class=""/></g><g><path d="m5.047 11.553c-.256 0-.512-.098-.707-.293l-1.414-1.414c-.391-.391-.391-1.023 0-1.414s1.023-.391 1.414 0l1.414 1.414c.391.391.391 1.023 0 1.414-.195.195-.451.293-.707.293z" data-original="#000000" class=""/></g><g><path d="m18.996 16.508-2.001-.002c-.553-.001-1-.448-.999-1.001.001-.552.448-.999 1-.999h.001l2 .002c.553.001 1 .448.999 1.001-.001.552-.448.999-1 .999z" data-original="#000000" class=""/></g><g><path d="m2.996 16.502h-2c-.553 0-1-.447-1-1s.447-1 1-1h2c.553 0 1 .447 1 1s-.447 1-1 1z" data-original="#000000" class=""/></g><g><path d="m14.948 11.555c-.256 0-.512-.098-.707-.293-.391-.391-.391-1.023 0-1.414l1.414-1.414c.391-.391 1.023-.391 1.414 0s.391 1.023 0 1.414l-1.414 1.414c-.195.195-.451.293-.707.293z" data-original="#000000" class=""/></g><g><path d="m3.631 22.865c-.256 0-.512-.098-.707-.293-.391-.391-.391-1.023 0-1.414l1.414-1.414c.391-.391 1.023-.391 1.414 0s.391 1.023 0 1.414l-1.414 1.414c-.195.196-.451.293-.707.293z" data-original="#000000" class=""/></g></g></g></g> </svg>
