<?xml version="1.0"?>
<svg xmlns="http://www.w3.org/2000/svg" xmlns:xlink="http://www.w3.org/1999/xlink" version="1.1" id="Capa_1" x="0px" y="0px" viewBox="0 0 511.987 511.987" style="enable-background:new 0 0 511.987 511.987;" xml:space="preserve" width="512px" height="512px" class=""><g><g>
	<path style="fill:#974C18" d="M138.261,233.861l39.779-85.792c3.335-7.191,10.046-12.235,17.881-13.439l113.937-17.494   c12.921-1.984,25.003,6.883,26.987,19.804c1.992,12.92-6.883,25.003-19.804,26.987l-101.394,15.568l-34.441,74.278   c-5.499,11.86-19.57,17.016-31.43,11.517C137.933,259.799,132.756,245.73,138.261,233.861z" data-original="#BA6746" class="" data-old_color="#BA6746"/>
	<path style="fill:#974C18" d="M190.744,416.95c-4.407,0-8.801-1.042-12.807-3.105L48.01,346.903   c-13.726-7.072-19.121-23.933-12.049-37.66c7.072-13.726,23.932-19.121,37.66-12.049l101.724,52.411l25.675-70.412   c5.289-14.507,21.336-21.981,35.846-16.689c14.507,5.29,21.979,21.338,16.689,35.845l-36.544,100.22   c-2.75,7.542-8.61,13.538-16.087,16.461C197.643,416.313,194.19,416.95,190.744,416.95z" data-original="#BA6746" class="" data-old_color="#BA6746"/>
	<path style="fill:#974C18" d="M377.439,511.987c-15.442,0-27.959-12.518-27.959-27.959V363.496l-131.958-48.48   c-14.494-5.325-21.927-21.392-16.602-35.886s21.391-21.927,35.886-16.602l150.274,55.21c11.004,4.043,18.317,14.521,18.317,26.244   v140.047C405.397,499.469,392.88,511.987,377.439,511.987z" data-original="#BA6746" class="" data-old_color="#BA6746"/>
</g><path style="fill:#00202E" d="M387.08,317.737l-150.274-55.21c-14.494-5.325-30.561,2.108-35.886,16.602  s2.108,30.561,16.602,35.885l131.192,48.199L387.08,317.737z" data-original="#3C5064" class="active-path" data-old_color="#3C5064"/><path style="fill:#00202E" d="M175.345,349.606l25.675-70.412c5.289-14.507,21.336-21.981,35.846-16.689  c14.507,5.29,21.979,21.338,16.689,35.845l-36.544,100.22L175.345,349.606z" data-original="#3C5A73" class="" data-old_color="#3C5A73"/><path style="fill:#78A8BC" d="M195.265,295.014l78.011,26.721c20.722,7.098,43.275-3.947,50.373-24.669L372.2,155.322  c5.117-14.938-2.845-31.196-17.783-36.312l-61.436-21.044c-14.938-5.117-31.195,2.845-36.312,17.783L195.265,295.014z" data-original="#FA503C" class="" data-old_color="#FA503C"/><g>
	<circle style="fill:#974C18" cx="363.204" cy="47.783" r="47.783" data-original="#BA6746" class="" data-old_color="#BA6746"/>
	<path style="fill:#974C18" d="M451.756,285.367l-93.398-14.814c-7.829-1.242-14.515-6.319-17.815-13.527L292.572,152.21   c-5.44-11.887-0.214-25.932,11.673-31.373c11.884-5.447,25.932-0.214,31.373,11.673l42.69,93.277l80.864,12.826   c12.911,2.048,21.717,14.174,19.669,27.085C476.796,278.593,464.678,287.418,451.756,285.367z" data-original="#BA6746" class="" data-old_color="#BA6746"/>
</g></g> </svg>
